<svg id="Layer_1" data-name="Layer 1" xmlns="http://www.w3.org/2000/svg" viewBox="0 0 101 101"><title>Artboard 2 copy 24</title><path d="M82.34,43.38a1.49,1.49,0,0,0-.17-.85l-11-20.74a1.5,1.5,0,0,0-1.33-.8h-40a1.5,1.5,0,0,0-1.36.86L18.61,42.59a1.49,1.49,0,0,0-.13.84A11.57,11.57,0,0,0,10,54.56v6.88a11.58,11.58,0,0,0,8,11s0,0,0,.06v11A3.74,3.74,0,0,0,22,87H27a3.74,3.74,0,0,0,4-3.46V73H70V83.54A3.74,3.74,0,0,0,74,87H79a3.74,3.74,0,0,0,4-3.46v-11s0,0,0-.06a11.58,11.58,0,0,0,8-11V54.56A11.57,11.57,0,0,0,82.34,43.38ZM30.74,24h38.2L79,43H21.73ZM28,83.54c0,.14-.36.46-1,.46H22c-.59,0-1-.32-1-.46V73l.56,0H28Zm52,0c0,.14-.36.46-1,.46H74c-.59,0-1-.32-1-.46V73h6.44L80,73Zm8-22.09A8.57,8.57,0,0,1,79.44,70H21.56A8.57,8.57,0,0,1,13,61.44V54.56A8.57,8.57,0,0,1,21.56,46H79.44A8.57,8.57,0,0,1,88,54.56Z"/><path d="M24.77,51.61a6.31,6.31,0,1,0,6.31,6.31A6.31,6.31,0,0,0,24.77,51.61Zm0,9.61a3.31,3.31,0,1,1,3.31-3.31A3.31,3.31,0,0,1,24.77,61.22Z"/><path d="M76,51.2a6.31,6.31,0,1,0,6.31,6.31A6.31,6.31,0,0,0,76,51.2Zm0,9.61a3.31,3.31,0,1,1,3.31-3.31A3.31,3.31,0,0,1,76,60.81Z"/><path d="M57.5,59h-15a1.5,1.5,0,0,0,0,3h15a1.5,1.5,0,0,0,0-3Z"/><rect x="48" y="9" width="4" height="4"/><rect x="36" y="5" width="4" height="4"/><rect x="40" y="9" width="4" height="4"/><rect x="44" y="5" width="4" height="4"/><rect x="52" y="5" width="4" height="4"/><rect x="56" y="9" width="4" height="4"/><rect x="60" y="5" width="4" height="4"/></svg>