<svg id="Слой_1" data-name="Слой 1" xmlns="http://www.w3.org/2000/svg" viewBox="0 0 101 101"><title>log_Монтажная область 20</title><path d="M78.5,19H70V7.5a1.5,1.5,0,0,0-1.91-1.44l-46,13-.08,0-.15.06-.12.07-.13.08-.11.09-.1.1-.09.11-.08.12-.07.12L21.1,20l0,.14s0,.09,0,.14a1.49,1.49,0,0,0,0,.16s0,.06,0,.09v69A1.5,1.5,0,0,0,22.5,91h56A1.5,1.5,0,0,0,80,89.5v-69A1.5,1.5,0,0,0,78.5,19ZM67,19H33.32L67,9.48ZM77,88H24V22H77Z"/><path d="M50.5,33a15,15,0,1,0,15,15A15,15,0,0,0,50.5,33Zm0,27a12,12,0,1,1,12-12A12,12,0,0,1,50.5,60Z"/><path d="M60,73H41a1.5,1.5,0,0,0,0,3H60a1.5,1.5,0,0,0,0-3Z"/></svg>