<svg id="Layer_1" data-name="Layer 1" xmlns="http://www.w3.org/2000/svg" viewBox="0 0 101 101"><title>log_Artboard 2 copy 9</title><path d="M92.75,29.68a1.5,1.5,0,0,0-1-1.37c-.3-.09-7.33-2.3-12.51-2.3a35.59,35.59,0,0,0-29,14.82A35.57,35.57,0,0,0,21.22,26c-5.17,0-12.59,2.2-12.9,2.29a1.5,1.5,0,0,0-1.07,1.44c0,17.84,12.6,31.3,29.3,31.3a30.6,30.6,0,0,0,8.71-1.63c1.32-.38,2.57-.75,3.83-1a6.73,6.73,0,0,1,1.84,0c1.27.27,2.51.64,3.83,1A30.61,30.61,0,0,0,63.46,61,28.53,28.53,0,0,0,90,43.46v29a1.5,1.5,0,0,0,3,0v-42A1.49,1.49,0,0,0,92.75,29.68ZM63.46,58a27.87,27.87,0,0,1-7.87-1.51c-1.31-.38-2.67-.78-4-1.07a9.29,9.29,0,0,0-3.1,0c-1.37.29-2.73.69-4,1.07A27.88,27.88,0,0,1,36.55,58c-14.64,0-25.77-11.6-26.28-27.17a49.56,49.56,0,0,1,11-1.86A32.61,32.61,0,0,1,48.86,44.17a1.63,1.63,0,0,0,.66.71,1.5,1.5,0,0,0,2.19-.93A32.62,32.62,0,0,1,79.21,29a44.74,44.74,0,0,1,10.54,1.85C89.24,46.43,78.11,58,63.46,58Z"/><path d="M62.93,80.36a1.5,1.5,0,0,0-2,.8A12,12,0,0,1,39,81.63a1.5,1.5,0,0,0-2.71,1.29,15,15,0,0,0,27.41-.59A1.5,1.5,0,0,0,62.93,80.36Z"/><path d="M49.53,75.31h.42c2.73,0,5.36-1.39,7.83-4.15a1.5,1.5,0,1,0-2.23-2c-2,2.18-3.94,3.25-5.84,3.14-3-.14-5.12-3-5.15-3A1.5,1.5,0,0,0,42.13,71C42.25,71.21,45.11,75.08,49.53,75.31Z"/><path d="M74.23,42.79c-2,2.28-4.12,3.38-6.12,3.29C65,45.93,62.74,43,62.7,42.9a1.5,1.5,0,0,0-2.42,1.77c.12.17,3.08,4.17,7.65,4.4h.43c2.82,0,5.55-1.44,8.1-4.3a1.5,1.5,0,1,0-2.23-2Z"/><path d="M36.65,42.79c-2,2.28-4.12,3.38-6.12,3.29-3.13-.15-5.36-3.13-5.4-3.18a1.5,1.5,0,0,0-2.42,1.77c.12.17,3.08,4.17,7.65,4.4h.43c2.82,0,5.55-1.44,8.1-4.3a1.5,1.5,0,1,0-2.23-2Z"/></svg>