<?xml version="1.0" encoding="iso-8859-1"?>
<!-- Generator: Adobe Illustrator 21.0.0, SVG Export Plug-In . SVG Version: 6.00 Build 0)  -->
<svg version="1.1" id="Layer_1" xmlns="http://www.w3.org/2000/svg" xmlns:xlink="http://www.w3.org/1999/xlink" x="0px" y="0px"
	 viewBox="0 0 100 100" style="enable-background:new 0 0 100 100;" xml:space="preserve">
<g>
	<path style="fill:#231F20;" d="M58.446,17.095c-0.829,0-1.5,0.671-1.5,1.5c0,0.828,0.671,1.5,1.5,1.5
		c16.491,0,29.908,13.415,29.908,29.905S74.937,79.905,58.446,79.905c-13.469,0-25.338-9.067-28.864-22.049
		c-0.218-0.8-1.044-1.271-1.841-1.054c-0.799,0.217-1.271,1.042-1.055,1.841c3.88,14.286,16.94,24.263,31.759,24.263
		c18.146,0,32.908-14.761,32.908-32.905C91.354,31.856,76.592,17.095,58.446,17.095z"/>
	<path style="fill:#231F20;" d="M46.654,42.604V23.506c0-0.829-0.671-1.5-1.5-1.5H10.146c-0.829,0-1.5,0.671-1.5,1.5v19.098
		c0,0.828,0.671,1.5,1.5,1.5h35.008C45.982,44.104,46.654,43.432,46.654,42.604z M43.654,41.104H11.646V25.006h32.008V41.104z"/>
	<path style="fill:#231F20;" d="M27.649,38.432c2.966,0,5.379-2.413,5.379-5.378s-2.413-5.377-5.379-5.377s-5.378,2.412-5.378,5.377
		S24.684,38.432,27.649,38.432z M27.649,30.676c1.312,0,2.379,1.066,2.379,2.377c0,1.312-1.067,2.378-2.379,2.378
		s-2.378-1.067-2.378-2.378C25.271,31.742,26.338,30.676,27.649,30.676z"/>
	<path style="fill:#231F20;" d="M42.326,66.188c0.293,0.292,0.677,0.439,1.061,0.439s0.768-0.146,1.061-0.439l14.757-14.767
		c0.281-0.281,0.439-0.663,0.439-1.06V29.026c0-0.828-0.671-1.5-1.5-1.5s-1.5,0.672-1.5,1.5V49.74L42.326,64.067
		C41.74,64.653,41.74,65.603,42.326,66.188z"/>
</g>
</svg>
