<?xml version="1.0" encoding="iso-8859-1"?>
<!-- Generator: Adobe Illustrator 21.0.0, SVG Export Plug-In . SVG Version: 6.00 Build 0)  -->
<svg version="1.1" id="Layer_1" xmlns="http://www.w3.org/2000/svg" xmlns:xlink="http://www.w3.org/1999/xlink" x="0px" y="0px"
	 viewBox="0 0 100 100" style="enable-background:new 0 0 100 100;" xml:space="preserve">
<path style="fill:#231F20;" d="M80.599,56.214c-0.06-1.138-0.144-2.328-0.27-3.569c-0.75-7.431-3.041-17.866-9.694-25.375
	c-5.8-6.547-13.909-9.866-24.103-9.866c-14.916,0-26.385,9.451-28.13,12.197C9.78,36.906,4.881,47.424,4.881,58.822l0.047,0.374
	c0.083,0.321,2.123,7.903,10.929,11.882c12.292,5.557,27.918,11.519,44.604,11.518c3.31,0,6.665-0.235,10.04-0.754
	c21.819-3.355,24.617-8.4,24.617-12.421C95.118,68.527,95.115,65.818,80.599,56.214z M68.383,29.252
	c10.383,11.71,9.486,31.693,9.11,36.41l-17.479,4.37c0.192-4.176,0.467-13.987-0.6-22.917c-1.293-10.812-4.65-22.971-18.183-26.286
	c1.691-0.267,3.459-0.424,5.302-0.424C55.826,20.404,63.177,23.381,68.383,29.252z M33.516,22.949
	c14.008,0.043,20.869,7.392,22.919,24.522c0.996,8.33,0.777,17.699,0.597,22.006l-5.436-3.078c0.45-4.675,1.669-23.929-7.559-33.028
	c-5.833-5.751-11.99-7.464-16.839-7.241C28.981,25.022,31.106,23.903,33.516,22.949z M20.767,31.544
	c0.114-0.083,0.223-0.17,0.321-0.255c0.289-0.232,0.575-0.468,0.873-0.692c3.423-2.227,12.009-2.939,19.97,4.91
	c7.932,7.822,7.126,25.188,6.712,30.167c-3.924-0.167-15.5-0.948-24.934-4.462c-6.283-2.34-11.17-6.349-14.531-11.906
	C11.089,42.396,15.074,36.223,20.767,31.544z M70.045,78.876c-19.609,3.016-38.598-4.044-52.952-10.533
	c-6.871-3.105-8.886-8.684-9.211-9.732c0.01-1.771,0.163-3.514,0.424-5.228c4.461,5.977,10.139,9.069,14.355,10.64
	c11.048,4.115,24.432,4.626,26.928,4.687l8.598,4.869l22.064-5.516l0.125-1.024c0.021-0.171,0.346-2.957,0.328-7.14
	c7.163,4.876,11.153,8.461,11.414,9.521C92.118,73.443,84.692,76.624,70.045,78.876z"/>
</svg>
