<?xml version="1.0" encoding="iso-8859-1"?>
<!-- Generator: Adobe Illustrator 21.0.0, SVG Export Plug-In . SVG Version: 6.00 Build 0)  -->
<svg version="1.1" id="Layer_1" xmlns="http://www.w3.org/2000/svg" xmlns:xlink="http://www.w3.org/1999/xlink" x="0px" y="0px"
	 viewBox="0 0 100.353 100.352" style="enable-background:new 0 0 100.353 100.352;" xml:space="preserve">
<g>
	<path d="M57.986,69.992l14.993-24.108l1.396-2.292h-0.137c1.852-3.704,2.82-7.778,2.82-11.922c0-14.772-12.018-26.79-26.79-26.79
		c-14.773,0-26.792,12.018-26.792,26.79c0,4.144,0.969,8.217,2.82,11.922h-0.109l15.812,26.46
		c-11.22,1.587-18.599,6.2-18.599,11.797c0,6.935,11.785,12.366,26.829,12.366s26.829-5.432,26.829-12.366
		C77.058,76.225,69.335,71.508,57.986,69.992z M30.129,44.294c-2.39-3.804-3.653-8.169-3.653-12.624
		c0-13.118,10.673-23.79,23.792-23.79c13.118,0,23.79,10.672,23.79,23.79c0,4.456-1.263,8.821-3.653,12.624l-1.413,2.298h0.015
		L49.865,77.367L31.475,46.592h0.098L30.129,44.294z M50.229,91.215c-14.043,0-23.829-4.937-23.829-9.366
		c0-4.02,7.37-7.808,17.282-8.981l6.133,10.263l6.419-10.322c10.071,1.091,17.824,4.975,17.824,9.04
		C74.058,86.279,64.271,91.215,50.229,91.215z"/>
	<path d="M50.716,41.411c5.371,0,9.741-4.37,9.741-9.741s-4.37-9.741-9.741-9.741s-9.741,4.37-9.741,9.741
		S45.345,41.411,50.716,41.411z M50.716,24.929c3.717,0,6.741,3.024,6.741,6.741c0,3.717-3.024,6.741-6.741,6.741
		s-6.741-3.024-6.741-6.741C43.975,27.953,46.999,24.929,50.716,24.929z"/>
</g>
<g id="Layer_1_1_">
</g>
</svg>
