<?xml version="1.0" encoding="iso-8859-1"?>
<!-- Generator: Adobe Illustrator 21.0.2, SVG Export Plug-In . SVG Version: 6.00 Build 0)  -->
<svg version="1.1" id="Layer_1" xmlns="http://www.w3.org/2000/svg" xmlns:xlink="http://www.w3.org/1999/xlink" x="0px" y="0px"
	 viewBox="0 0 100.75 100.749" style="enable-background:new 0 0 100.75 100.749;" xml:space="preserve">
<g>
	<path d="M41.857,41.407c-7.426,0-13.468,6.043-13.468,13.472c0,0.828,0.671,1.5,1.5,1.5h23.933c0.828,0,1.5-0.672,1.5-1.5
		C55.322,47.451,49.282,41.407,41.857,41.407z M31.496,53.379c0.729-5.066,5.098-8.972,10.361-8.972
		c5.262,0,9.628,3.906,10.358,8.972H31.496z"/>
	<path d="M41.643,40.259c4.506,0,8.172-3.665,8.172-8.169c0-4.5-3.666-8.161-8.172-8.161c-4.499,0-8.159,3.661-8.159,8.161
		C33.484,36.594,37.144,40.259,41.643,40.259z M41.643,26.929c2.852,0,5.172,2.315,5.172,5.161c0,2.85-2.32,5.169-5.172,5.169
		c-2.845,0-5.159-2.319-5.159-5.169C36.484,29.244,38.798,26.929,41.643,26.929z"/>
	<path d="M90.722,82.007L75.077,66.372c-0.281-0.281-0.663-0.439-1.061-0.439c0,0,0,0-0.001,0c-0.397,0-0.779,0.158-1.061,0.439
		l-2.567,2.569l-4.618-4.617c5.634-5.925,9.102-13.926,9.102-22.728c0-18.205-14.811-33.016-33.016-33.016
		C23.651,8.579,8.84,23.39,8.84,41.595c0,18.206,14.811,33.016,33.016,33.016c8.326,0,15.937-3.105,21.751-8.208l4.661,4.66
		l-2.15,2.151c-0.585,0.586-0.585,1.536,0.001,2.121L81.763,90.97c0.281,0.281,0.663,0.439,1.061,0.439
		c0.398,0,0.779-0.158,1.061-0.439l6.838-6.842c0.281-0.281,0.439-0.663,0.439-1.061C91.161,82.669,91.003,82.288,90.722,82.007z
		 M11.84,41.595c0-16.551,13.465-30.016,30.016-30.016c16.551,0,30.016,13.465,30.016,30.016c0,16.551-13.465,30.016-30.016,30.016
		C25.305,71.611,11.84,58.146,11.84,41.595z M82.822,87.788L69.301,74.273l4.717-4.72L87.54,83.068L82.822,87.788z"/>
</g>
</svg>
