<?xml version="1.0" encoding="iso-8859-1"?>
<!-- Generator: Adobe Illustrator 21.0.2, SVG Export Plug-In . SVG Version: 6.00 Build 0)  -->
<svg version="1.1" id="Layer_1" xmlns="http://www.w3.org/2000/svg" xmlns:xlink="http://www.w3.org/1999/xlink" x="0px" y="0px"
	 viewBox="0 0 100.5 100.5" style="enable-background:new 0 0 100.5 100.5;" xml:space="preserve">
<path d="M95.576,49.668h-8.011V36.177c0-0.828-0.672-1.5-1.5-1.5h-24.99V21.222c0-0.828-0.672-1.5-1.5-1.5H4.425
	c-0.828,0-1.5,0.672-1.5,1.5v50.505c0,0.828,0.672,1.5,1.5,1.5H17.33c0.516,3.971,3.913,7.052,8.023,7.052
	c4.104,0,7.497-3.08,8.012-7.052h26.211h9.986c0.515,3.971,3.909,7.052,8.015,7.052c4.11,0,7.506-3.08,8.022-7.052h9.978
	c0.828,0,1.5-0.672,1.5-1.5v-20.56C97.076,50.339,96.404,49.668,95.576,49.668z M25.352,77.279c-2.812,0-5.099-2.287-5.099-5.098
	c0-2.812,2.287-5.099,5.099-5.099c2.805,0,5.087,2.287,5.087,5.099C30.439,74.992,28.157,77.279,25.352,77.279z M25.352,64.083
	c-3.791,0-6.973,2.621-7.85,6.145H5.925V22.722h52.15v13.454v14.991v19.06H33.191C32.315,66.704,29.137,64.083,25.352,64.083z
	 M77.576,77.279c-2.807,0-5.091-2.287-5.091-5.098c0-2.812,2.284-5.099,5.091-5.099c2.811,0,5.098,2.287,5.098,5.099
	C82.673,74.992,80.386,77.279,77.576,77.279z M94.076,70.227h-8.651c-0.878-3.523-4.059-6.145-7.849-6.145
	c-3.787,0-6.966,2.621-7.843,6.145h-8.658v-19.06V37.676h23.49v13.491c0,0.828,0.672,1.5,1.5,1.5h8.011L94.076,70.227L94.076,70.227
	z"/>
</svg>
