<svg id="Capa_1" data-name="Capa 1" xmlns="http://www.w3.org/2000/svg" viewBox="0 0 25 25"><defs><style>.cls-1{fill:#f2bf26;}</style></defs><path class="cls-1" d="M24.38,10.18l-2.23-.27a10,10,0,0,0-1-2.4l1.38-1.77a.71.71,0,0,0-.05-.93l-2.3-2.3a.74.74,0,0,0-.94-.06L17.49,3.84a10.12,10.12,0,0,0-2.4-1L14.82.62A.72.72,0,0,0,14.13,0H10.87a.73.73,0,0,0-.7.62L9.91,2.85a10,10,0,0,0-2.4,1L5.74,2.45a.73.73,0,0,0-.93.06l-2.3,2.3a.73.73,0,0,0,0,.94L3.84,7.51a10,10,0,0,0-1,2.4l-2.23.27a.72.72,0,0,0-.62.7v3.25a.73.73,0,0,0,.62.7l2.23.27a10,10,0,0,0,1,2.39L2.46,19.26a.73.73,0,0,0,0,.93l2.3,2.3a.71.71,0,0,0,.93.06l1.77-1.39a9.56,9.56,0,0,0,2.4,1l.26,2.23a.74.74,0,0,0,.7.62h3.26a.72.72,0,0,0,.69-.62l.27-2.23a10,10,0,0,0,2.4-1l1.77,1.39a.73.73,0,0,0,.93-.06l2.3-2.3a.73.73,0,0,0,.06-.93l-1.39-1.77a10,10,0,0,0,1-2.4l2.23-.26a.74.74,0,0,0,.62-.7V10.88A.72.72,0,0,0,24.38,10.18ZM12.5,18.75a6.25,6.25,0,1,1,6.25-6.25A6.25,6.25,0,0,1,12.5,18.75Z"/></svg>