<?xml version="1.0" encoding="utf-8"?>
<!-- Generator: Adobe Illustrator 24.3.0, SVG Export Plug-In . SVG Version: 6.00 Build 0)  -->
<svg version="1.1" xmlns="http://www.w3.org/2000/svg" xmlns:xlink="http://www.w3.org/1999/xlink" x="0px" y="0px"
	 viewBox="0 0 740.22 188.21" style="enable-background:new 0 0 740.22 188.21;" xml:space="preserve">
<style type="text/css">
	.st0{fill:#1D1D1B;}
	.st1{fill:url(#SVGID_1_);}
	.st2{fill:#FFFFFF;}
	.st3{fill:#F59A16;}
	.st4{fill:#F59A16;stroke:#F59A16;stroke-width:2;stroke-miterlimit:10;}
	.st5{fill:url(#SVGID_2_);}
	.st6{fill:url(#SVGID_3_);}
	.st7{fill:url(#SVGID_4_);}
	.st8{fill:url(#SVGID_5_);}
	.st9{fill:url(#SVGID_6_);}
	.st10{fill:url(#SVGID_7_);}
	.st11{fill:url(#SVGID_8_);}
	.st12{fill:url(#SVGID_9_);}
	.st13{fill:url(#SVGID_10_);}
	.st14{fill:#FFCD2F;}
	.st15{fill:none;}
	.st16{fill:url(#SVGID_11_);stroke:url(#SVGID_12_);stroke-miterlimit:10;}
	.st17{fill:url(#SVGID_13_);stroke:url(#SVGID_14_);stroke-miterlimit:10;}
	.st18{fill:url(#SVGID_15_);stroke:url(#SVGID_16_);stroke-miterlimit:10;}
	.st19{fill:url(#SVGID_17_);stroke:url(#SVGID_18_);stroke-miterlimit:10;}
	.st20{fill:url(#SVGID_19_);stroke:url(#SVGID_20_);stroke-miterlimit:10;}
	.st21{fill:#FFFFFF;stroke:#FFFFFF;stroke-width:4;stroke-miterlimit:10;}
	.st22{fill:url(#SVGID_21_);}
	.st23{fill:url(#SVGID_22_);}
	.st24{fill:url(#SVGID_23_);}
	.st25{fill:url(#SVGID_24_);}
	.st26{fill:url(#SVGID_25_);}
	.st27{fill:url(#SVGID_26_);}
	.st28{fill:#FFFFFF;stroke:#FFFFFF;stroke-miterlimit:10;}
</style>
<g id="Layer_1">
	<g>
		<linearGradient id="SVGID_1_" gradientUnits="userSpaceOnUse" x1="566.0029" y1="37.2399" x2="581.7324" y2="47.8254">
			<stop  offset="0" style="stop-color:#FFCD2C"/>
			<stop  offset="1" style="stop-color:#F59B1A"/>
		</linearGradient>
		<linearGradient id="SVGID_2_" gradientUnits="userSpaceOnUse" x1="565.5881" y1="36.9608" x2="582.1472" y2="48.1046">
			<stop  offset="0" style="stop-color:#FFCD2C"/>
			<stop  offset="1" style="stop-color:#F59B1A"/>
		</linearGradient>
		<path style="fill:url(#SVGID_1_);stroke:url(#SVGID_2_);stroke-miterlimit:10;" d="M583.26,42.54c0,2.68-0.91,4.92-2.72,6.74
			c-0.45,0.45-0.93,0.84-1.43,1.19c-1.51,1.01-3.24,1.53-5.18,1.53c-2.16,0-4.02-0.58-5.61-1.77c-0.39-0.28-0.78-0.58-1.12-0.95
			c-1.81-1.81-2.72-4.06-2.72-6.74c0-2.68,0.91-4.92,2.72-6.74c0.37-0.37,0.78-0.71,1.19-1.01c1.58-1.14,3.43-1.71,5.55-1.71
			c1.99,0,3.74,0.54,5.27,1.6c0.45,0.32,0.91,0.69,1.34,1.12C582.35,37.61,583.26,39.86,583.26,42.54z"/>
		<linearGradient id="SVGID_3_" gradientUnits="userSpaceOnUse" x1="465.4924" y1="54.0899" x2="556.6918" y2="115.4646">
			<stop  offset="0" style="stop-color:#FFCD2C"/>
			<stop  offset="1" style="stop-color:#F59B1A"/>
		</linearGradient>
		<linearGradient id="SVGID_4_" gradientUnits="userSpaceOnUse" x1="464.9167" y1="53.7024" x2="557.2676" y2="115.8521">
			<stop  offset="0" style="stop-color:#FFCD2C"/>
			<stop  offset="1" style="stop-color:#F59B1A"/>
		</linearGradient>
		<path style="fill:url(#SVGID_3_);stroke:url(#SVGID_4_);stroke-miterlimit:10;" d="M532.28,39.76v38.61h-42.37V39.76h-14.77v90.04
			h14.77V90.41h42.37v39.39h14.77V39.76H532.28z"/>
		<linearGradient id="SVGID_5_" gradientUnits="userSpaceOnUse" x1="552.2478" y1="79.5585" x2="595.48" y2="108.6526">
			<stop  offset="0" style="stop-color:#FFCD2C"/>
			<stop  offset="1" style="stop-color:#F59B1A"/>
		</linearGradient>
		<linearGradient id="SVGID_6_" gradientUnits="userSpaceOnUse" x1="551.6721" y1="79.171" x2="596.0558" y2="109.04">
			<stop  offset="0" style="stop-color:#FFCD2C"/>
			<stop  offset="1" style="stop-color:#F59B1A"/>
		</linearGradient>
		<path style="fill:url(#SVGID_5_);stroke:url(#SVGID_6_);stroke-miterlimit:10;" d="M566.48,58.41v71.39h14.77V58.41H566.48z"/>
		<linearGradient id="SVGID_7_" gradientUnits="userSpaceOnUse" x1="591.1558" y1="60.0547" x2="654.9871" y2="103.0115">
			<stop  offset="0" style="stop-color:#FFCD2C"/>
			<stop  offset="1" style="stop-color:#F59B1A"/>
		</linearGradient>
		<linearGradient id="SVGID_8_" gradientUnits="userSpaceOnUse" x1="590.4849" y1="59.4752" x2="655.5151" y2="103.2388">
			<stop  offset="0" style="stop-color:#FFCD2C"/>
			<stop  offset="1" style="stop-color:#F59B1A"/>
		</linearGradient>
		<path style="fill:url(#SVGID_7_);stroke:url(#SVGID_8_);stroke-miterlimit:10;" d="M648.49,58.41l-20.21,58.17l-20.21-58.17
			h-15.81l27.08,71.39h17.62l27.21-71.39H648.49z"/>
		<linearGradient id="SVGID_9_" gradientUnits="userSpaceOnUse" x1="675.419" y1="73.5157" x2="736.3002" y2="114.4871">
			<stop  offset="0" style="stop-color:#FFCD2C"/>
			<stop  offset="1" style="stop-color:#F59B1A"/>
		</linearGradient>
		<linearGradient id="SVGID_10_" gradientUnits="userSpaceOnUse" x1="675.0042" y1="73.2365" x2="736.715" y2="114.7662">
			<stop  offset="0" style="stop-color:#FFCD2C"/>
			<stop  offset="1" style="stop-color:#F59B1A"/>
		</linearGradient>
		<path style="fill:url(#SVGID_9_);stroke:url(#SVGID_10_);stroke-miterlimit:10;" d="M740.74,92.36c0-6.91-1.47-13.02-4.41-18.33
			c-2.94-5.31-7.04-9.44-12.31-12.37c-5.27-2.94-11.27-4.4-18.01-4.4c-7,0-13.19,1.51-18.59,4.53c-5.4,3.02-9.59,7.32-12.57,12.89
			c-2.98,5.57-4.47,12.03-4.47,19.37c0,7.34,1.53,13.8,4.6,19.37s7.3,9.89,12.7,12.96c5.4,3.07,11.51,4.6,18.33,4.6
			c8.38,0,15.4-2.09,21.05-6.28c5.66-4.19,9.57-9.57,11.73-16.13h-15.94c-3.28,6.65-8.9,9.98-16.84,9.98
			c-5.53,0-10.19-1.73-13.99-5.18c-3.8-3.45-5.92-8.03-6.35-13.73h54.54C740.56,97.45,740.74,95.03,740.74,92.36z M685.8,87.69
			c0.69-5.53,2.85-9.91,6.48-13.15s7.99-4.86,13.09-4.86c5.61,0,10.32,1.64,14.12,4.92c3.8,3.28,5.74,7.64,5.83,13.09H685.8z"/>
		<path class="st21" d="M285.72,37.62c-1.72-1.73-3.82-2.59-6.28-2.59c-2.53,0-4.66,0.86-6.39,2.59c-1.73,1.73-2.59,3.84-2.59,6.39
			c0,2.55,0.86,4.69,2.59,6.42c1.73,1.7,3.86,2.57,6.39,2.57c2.46,0,4.56-0.87,6.28-2.57c1.73-1.73,2.6-3.87,2.6-6.42
			C288.32,41.46,287.45,39.35,285.72,37.62z M272.32,61.98v67.82h14.03V61.98H272.32z"/>
		<path class="st21" d="M355.75,61.98h-14.64L327.34,85l-14.67-23.02H296.8l21.92,34.46L296.8,129.8h14.64l13.8-23.02l14.64,23.02
			h15.87l-21.89-34.33L355.75,61.98z"/>
		<path class="st21" d="M428.37,94.24c0-6.57-1.38-12.37-4.17-17.43c-2.8-5.03-6.69-8.96-11.7-11.74
			c-5.01-2.79-10.71-4.19-17.1-4.19c-6.65,0-12.55,1.44-17.67,4.32c-5.14,2.87-9.11,6.95-11.94,12.24
			c-2.83,5.29-4.25,11.42-4.25,18.4c0,6.97,1.47,13.1,4.38,18.39c2.9,5.29,6.93,9.4,12.05,12.31c5.14,2.92,10.95,4.36,17.43,4.36
			c7.94,0,14.62-1.98,19.99-5.96c5.38-3.97,9.09-9.09,11.15-15.33H411.4c-3.13,6.33-8.47,9.48-16,9.48c-5.25,0-9.7-1.64-13.3-4.92
			c-3.61-3.28-5.62-7.62-6.03-13.04h51.83C428.22,99.08,428.37,96.79,428.37,94.24z M376.2,89.81c0.65-5.27,2.7-9.41,6.16-12.5
			c3.43-3.07,7.57-4.62,12.41-4.62c5.33,0,9.8,1.57,13.43,4.68c3.61,3.11,5.44,7.26,5.53,12.44H376.2z"/>
		<g>
			<linearGradient id="SVGID_11_" gradientUnits="userSpaceOnUse" x1="35.9004" y1="16.2148" x2="96.4892" y2="56.9894">
				<stop  offset="0" style="stop-color:#FFCD2C"/>
				<stop  offset="1" style="stop-color:#F59B1A"/>
			</linearGradient>
			<polygon style="fill:url(#SVGID_11_);" points="34.5,18.3 34.5,54.9 66.19,73.2 97.89,54.9 97.89,18.3 66.19,0 			"/>
			<linearGradient id="SVGID_12_" gradientUnits="userSpaceOnUse" x1="70.4071" y1="73.5128" x2="130.9958" y2="114.2874">
				<stop  offset="0" style="stop-color:#FFCD2C"/>
				<stop  offset="1" style="stop-color:#F59B1A"/>
			</linearGradient>
			<polygon style="fill:url(#SVGID_12_);" points="69,75.6 69,112.2 100.7,130.5 132.4,112.2 132.4,75.6 100.7,57.3 			"/>
			<linearGradient id="SVGID_13_" gradientUnits="userSpaceOnUse" x1="104.9138" y1="16.2148" x2="165.5025" y2="56.9894">
				<stop  offset="0" style="stop-color:#FFCD2C"/>
				<stop  offset="1" style="stop-color:#F59B1A"/>
			</linearGradient>
			<polygon style="fill:url(#SVGID_13_);" points="103.51,18.3 103.51,54.9 135.21,73.2 166.91,54.9 166.91,18.3 135.21,0 			"/>
			<linearGradient id="SVGID_14_" gradientUnits="userSpaceOnUse" x1="1.404" y1="73.5128" x2="61.9928" y2="114.2874">
				<stop  offset="0" style="stop-color:#FFCD2C"/>
				<stop  offset="1" style="stop-color:#F59B1A"/>
			</linearGradient>
			<polygon style="fill:url(#SVGID_14_);" points="0,75.6 0,112.2 31.7,130.5 63.4,112.2 63.4,75.6 31.7,57.3 			"/>
			<linearGradient id="SVGID_15_" gradientUnits="userSpaceOnUse" x1="35.9004" y1="131.2218" x2="96.4892" y2="171.9964">
				<stop  offset="0" style="stop-color:#FFCD2C"/>
				<stop  offset="1" style="stop-color:#F59B1A"/>
			</linearGradient>
			<polygon style="fill:url(#SVGID_15_);" points="34.5,133.31 34.5,169.91 66.19,188.21 97.89,169.91 97.89,133.31 66.19,115.01 
							"/>
			<linearGradient id="SVGID_16_" gradientUnits="userSpaceOnUse" x1="104.9137" y1="131.2218" x2="165.5025" y2="171.9964">
				<stop  offset="0" style="stop-color:#FFCD2C"/>
				<stop  offset="1" style="stop-color:#F59B1A"/>
			</linearGradient>
			<polygon style="fill:url(#SVGID_16_);" points="103.51,133.31 103.51,169.91 135.21,188.21 166.91,169.91 166.91,133.31 
				135.21,115.01 			"/>
		</g>
		<g>
			<path class="st2" d="M193.14,71.99v4.77h4.77v-4.77H193.14z"/>
			<rect x="193.14" y="71.99" class="st2" width="4.77" height="4.77"/>
			<g>
				<path class="st2" d="M261.54,70.58c-2.33-3.58-5.82-6.39-10.48-8.42c-4.65-2.03-10.35-3.05-17.09-3.05h-33.34v4.4l5.41-3.04
					l5.41,3.04v6.07l-5.41,3.04l-5.41-3.04v4.14l-5.41,3.04v6.08l5.41,3.04v0.71l5.41-3.04l5.41,3.04v6.07l-5.41,3.04l-5.41-3.04
					v1.08l4.78,2.68v6.08l-4.78,2.69v6.83l-0.12-0.07l-2.3,1.32v2.66l2.3,1.32l0.12-0.07v15.79h20.59v-26.52h12.76
					c6.9,0,12.68-1.08,17.34-3.26c4.65-2.17,8.1-5.03,10.35-8.58c2.25-3.54,3.37-7.45,3.37-11.73
					C265.03,78.26,263.86,74.16,261.54,70.58z M206.66,96.43l5.41-3.04l5.41,3.04v6.08l-5.41,3.04l-5.41-3.04V96.43z M201.42,107.97
					l2.3-1.32l2.3,1.32v2.66l-2.3,1.32l-2.3-1.32V107.97z M212.07,128.6l-5.41,3.04l-5.41-3.04v-6.08l5.41-3.04l5.41,3.04V128.6z
					 M218.33,118.62l-5.41,3.04l-5.41-3.04v-6.08l5.41-3.04l5.41,3.04V118.62z M241.19,89.73c-1.92,1.62-4.86,2.42-8.79,2.42h-11.19
					V73.63h11.19c3.93,0,6.86,0.81,8.79,2.42c1.93,1.62,2.89,3.89,2.89,6.84C244.08,85.83,243.12,88.12,241.19,89.73z"/>
			</g>
			<polygon class="st2" points="198.48,100.98 198.48,105.48 194.58,107.73 190.69,105.48 190.69,100.98 194.58,98.72 			"/>
			<polygon class="st2" points="199.99,86.6 199.99,92.67 194.58,95.71 189.18,92.67 189.18,86.6 194.58,83.56 			"/>
			<polygon class="st2" points="199.99,117.91 199.99,123.98 194.58,127.02 189.18,123.98 189.18,117.91 194.58,114.87 			"/>
			<polygon class="st2" points="186.86,90.36 186.86,96.43 181.46,99.47 176.05,96.43 176.05,90.36 181.46,87.32 			"/>
			<polygon class="st2" points="169.51,92.07 169.51,94.72 167.21,96.05 164.91,94.72 164.91,92.07 167.21,90.74 			"/>
			<polygon class="st2" points="198.48,66.91 198.48,70.5 195.38,72.29 192.28,70.5 192.28,66.91 195.38,65.12 			"/>
			<polygon class="st2" points="177.93,78.86 177.93,82.45 174.82,84.24 171.72,82.45 171.72,78.86 174.82,77.07 			"/>
			<polygon class="st2" points="186.86,108.17 186.86,110.83 184.57,112.16 182.26,110.83 182.26,108.17 184.57,106.84 			"/>
		</g>
		<path class="st28" d="M452.72,40.91v91.08h-14.01V60.6C438.71,60.6,438.94,41.15,452.72,40.91z"/>
	</g>
</g>
<g id="Слой_2">
</g>
</svg>
