<?xml version="1.0" encoding="UTF-8"?> <svg xmlns="http://www.w3.org/2000/svg" viewBox="0 0 428.54 77.5"> <defs> <style>.cls-1{fill:#ec4949;}.cls-2{fill:#fff;}.cls-3{fill:none;stroke:#fff;stroke-miterlimit:10;stroke-width:5px;}</style> </defs> <title>logo-white</title> <g id="Слой_2" data-name="Слой 2"> <path class="cls-1" d="M93.07,14.69s-27.33,6-43,22.67c0,0-15.67.33-34.5,17,0,0,20.83-2.17,25-.84,0,0-5.67,19.5,13.75,12.84v1.39s.58,21.77-1.08,24.44c0,0,19-24,16.5-33.17C69.74,59,89.4,36.69,93.07,14.69Z" transform="translate(-15.57 -14.69)"></path> <circle class="cls-2" cx="55.23" cy="21.56" r="3.56"></circle> </g> <g id="Слой_3" data-name="Слой 3"> <path class="cls-1" d="M39.9,68.52s-5.16-11.5-19.83,19C20.07,87.52,48.57,76.86,39.9,68.52Z" transform="translate(-15.57 -14.69)"></path> <path class="cls-2" d="M19.92,44.17c.16-.88.32-1.53.51-2.26s.39-1.41.62-2.1a41.15,41.15,0,0,1,1.54-4.05,40.32,40.32,0,0,1,4.29-7.49A31.82,31.82,0,0,1,40.17,17.61a35.44,35.44,0,0,1,8.13-2.23A41.64,41.64,0,0,1,52.46,15c.69,0,1.38-.06,2.07,0l2.07.1a62.11,62.11,0,0,1,16,3.26,61.52,61.52,0,0,0-16-1.76l-2,.09c-.66,0-1.31.15-2,.22a39,39,0,0,0-3.89.68,32.77,32.77,0,0,0-7.27,2.73A28,28,0,0,0,30.63,30.77a34.35,34.35,0,0,0-3.14,6.9,34,34,0,0,0-1,3.64c-.14.61-.26,1.23-.36,1.84s-.2,1.27-.23,1.73Z" transform="translate(-15.57 -14.69)"></path> <path class="cls-2" d="M62.3,82.54c.5,0,1.19-.13,1.79-.24s1.26-.22,1.88-.36a37.83,37.83,0,0,0,10.77-4.23,28.31,28.31,0,0,0,10.64-11,32.62,32.62,0,0,0,2.75-7.39,39.5,39.5,0,0,0,.67-3.94c.07-.67.17-1.33.21-2l.09-2a62.62,62.62,0,0,0-1.86-16.14,63.21,63.21,0,0,1,3.11,16.12l.07,2.08c0,.69,0,1.38-.06,2.08,0,1.39-.24,2.77-.39,4.17a35,35,0,0,1-2.34,8.12A31.39,31.39,0,0,1,78.79,80.85,39.61,39.61,0,0,1,71.24,85a41.83,41.83,0,0,1-4.06,1.47c-.69.21-1.39.4-2.1.58s-1.39.33-2.24.46Z" transform="translate(-15.57 -14.69)"></path> <path class="cls-3" d="M39.32,80.44S43.61,84.3,52,84.93" transform="translate(-15.57 -14.69)"></path> <path class="cls-3" d="M21.39,56.25s2.68,9.16,5.74,12" transform="translate(-15.57 -14.69)"></path> <path class="cls-2" d="M113.34,58.6c.32-2.9.56-5.51.75-7.83s.33-5,.47-8.07.23-6.29.29-9.69.1-6.1.1-8.11c2.06.05,3.72.08,5,.08s2.92,0,4.81-.11,3.74-.12,5.53-.12c2.1,0,4,.09,5.63.25a14.25,14.25,0,0,1,3.37.72A9.53,9.53,0,0,1,141.83,27a8.14,8.14,0,0,1,1.73,1.74A7.28,7.28,0,0,1,144.63,31a9.56,9.56,0,0,1,.38,2.77,11,11,0,0,1-.42,3.1,9.13,9.13,0,0,1-1.32,2.72A8.62,8.62,0,0,1,141,41.82a19.56,19.56,0,0,1-3.84,1.89l1.29,3.14c.36.87.75,1.76,1.16,2.66l3.31,7.24c.14.31.41.93.78,1.85-2.71,0-4.53-.05-5.47-.05-1.19,0-3.12,0-5.82.05-.27-.86-.74-2.45-1.44-4.77-.28-1-.52-1.72-.71-2.24-.4-1.17-1-2.81-1.76-4.92l-2.54-7a14.77,14.77,0,0,0,2.61.25,9.38,9.38,0,0,0,3.27-.55,4.42,4.42,0,0,0,2.23-1.68,4.24,4.24,0,0,0,.75-2.39,3.11,3.11,0,0,0-.57-1.86,3.31,3.31,0,0,0-1.79-1.2,13.24,13.24,0,0,0-3.76-.4c-.58,0-1.18,0-1.79,0s-1.34.05-2.16.06q-.31,5.07-.56,12.35t-.32,14.29c-2.75,0-4.54-.05-5.36-.05S115.83,58.56,113.34,58.6Z" transform="translate(-15.57 -14.69)"></path> <path class="cls-2" d="M167.18,24.26a27.43,27.43,0,0,1,7.61,1.06,17.11,17.11,0,0,1,6.39,3.4,15.07,15.07,0,0,1,4.1,5.37,17,17,0,0,1,1.35,7,19,19,0,0,1-1.49,7.62,15.87,15.87,0,0,1-4.31,5.88,17.5,17.5,0,0,1-6.71,3.55,29.82,29.82,0,0,1-16.12,0,17.28,17.28,0,0,1-6.65-3.55,14.05,14.05,0,0,1-4-5.47,18.15,18.15,0,0,1-1.19-6.69,17.79,17.79,0,0,1,2.51-9.49,16.61,16.61,0,0,1,7.43-6.38A25.94,25.94,0,0,1,167.18,24.26Zm-.44,7.43a9.72,9.72,0,0,0-5.14,1.4A9.31,9.31,0,0,0,158.07,37a11.84,11.84,0,0,0-1.23,5.32A10.25,10.25,0,0,0,158,47.07a7.89,7.89,0,0,0,3.42,3.39,10.14,10.14,0,0,0,4.86,1.23,9.62,9.62,0,0,0,5-1.37,8.93,8.93,0,0,0,3.48-3.86,11.75,11.75,0,0,0,1.2-5.19,10.83,10.83,0,0,0-1.11-4.88,8.07,8.07,0,0,0-3.26-3.46A9.48,9.48,0,0,0,166.74,31.69Z" transform="translate(-15.57 -14.69)"></path> <path class="cls-2" d="M217.74,50.38q-.3,1.45-.72,4c-.28,1.73-.47,3.07-.56,4a64.17,64.17,0,0,1-9.43.79,26.52,26.52,0,0,1-7.45-1A18.45,18.45,0,0,1,193.26,55a13.2,13.2,0,0,1-4.11-5.37,18.53,18.53,0,0,1-1.23-6.91,18.8,18.8,0,0,1,1.67-8,15.69,15.69,0,0,1,4.79-5.95,19.73,19.73,0,0,1,6.85-3.4,28.61,28.61,0,0,1,7.7-1,53.79,53.79,0,0,1,9,.94l0,2.07c0,.91.08,1.9.15,3l.17,2.81q-2.88-.69-4.68-.93a23.56,23.56,0,0,0-3.32-.25,13.16,13.16,0,0,0-6,1.33,10,10,0,0,0-4.2,3.88,10.68,10.68,0,0,0-1.53,5.62,8.83,8.83,0,0,0,1.28,4.83,8.63,8.63,0,0,0,3.47,3.11,12,12,0,0,0,5.39,1.1,29.76,29.76,0,0,0,3.82-.28A46.85,46.85,0,0,0,217.74,50.38Z" transform="translate(-15.57 -14.69)"></path> <path class="cls-2" d="M220.41,58.6q.47-4.62.67-7.65.38-5.39.79-14.74.3-6.53.3-9.18V24.9c2.75,0,4.64.05,5.67.05.69,0,2.47,0,5.33-.05L232,43.34l-.59,15.26-5.35-.05C225.3,58.55,223.42,58.56,220.41,58.6Zm12.36-17.79,5.53-7.52L242.77,27l1.38-2.12c3.07,0,5.14.05,6.22.05l5.9-.05L245.86,38.05l-2,2.64,1.82,2.91,10.32,15L250,58.55c-1.32,0-3.55,0-6.69.05Q240.11,52.6,232.77,40.81Z" transform="translate(-15.57 -14.69)"></path> <path class="cls-2" d="M257.07,58.6c.41-4.25.71-7.8.9-10.67s.38-6.67.57-11.41.28-7.9.28-9.44l0-2.18q5.82.06,14.09.05,7.64,0,13.45-.05l0,.81c0,.2-.05.91-.12,2.14L286,30.54c0,.57,0,1.15,0,1.74q-4.75-.2-8-.19h-4.8c-.83,0-2.12,0-3.88.11l-.3,5.68q2.91.07,6.79.07,1.38,0,7.35-.17-.24,3.15-.47,7.53c-2.84,0-5,0-6.56,0q-3.41,0-7.62.17l-.29,6H271c.84,0,2.58,0,5.21-.07l5.1-.13c.76,0,2-.08,3.8-.2-.19,2.44-.36,5-.49,7.56q-6-.06-13.21-.05l-10.86,0Z" transform="translate(-15.57 -14.69)"></path> <path class="cls-2" d="M295.9,58.6q1.22-12,1.47-26.42l-10.51.28.13-2.74c.06-1.47.11-3.07.14-4.82q7,.06,16.34.05l6.1,0h5.92l3.21,0-.15,2.42c-.07,1.3-.11,2.37-.14,3.22s0,1.48,0,1.92c-3.52-.18-6.43-.28-8.71-.28h-1.73q-.37,4.37-.57,8.06-.27,5.3-.42,10.29t-.15,8.07c-2.7,0-4.44-.05-5.23-.05S299,58.56,295.9,58.6Z" transform="translate(-15.57 -14.69)"></path> <path class="cls-1" d="M347.64,50.38q-.3,1.45-.72,4c-.28,1.73-.47,3.07-.56,4a64.17,64.17,0,0,1-9.43.79,26.52,26.52,0,0,1-7.45-1A18.45,18.45,0,0,1,323.16,55a13.2,13.2,0,0,1-4.11-5.37,18.53,18.53,0,0,1-1.23-6.91,18.65,18.65,0,0,1,1.67-8,15.69,15.69,0,0,1,4.79-5.95,19.77,19.77,0,0,1,6.84-3.4,28.73,28.73,0,0,1,7.71-1,53.79,53.79,0,0,1,9,.94l.05,2.07c0,.91.08,1.9.15,3l.17,2.81q-2.88-.69-4.68-.93a23.56,23.56,0,0,0-3.32-.25,13.16,13.16,0,0,0-6,1.33A10,10,0,0,0,330,37.1a10.68,10.68,0,0,0-1.53,5.62,8.83,8.83,0,0,0,1.28,4.83,8.63,8.63,0,0,0,3.47,3.11,12,12,0,0,0,5.39,1.1,29.76,29.76,0,0,0,3.82-.28A46.85,46.85,0,0,0,347.64,50.38Z" transform="translate(-15.57 -14.69)"></path> <path class="cls-1" d="M345.91,58.6,348,55l12.77-24,1.36-2.69c.4-.79,1-1.93,1.65-3.41,2.9,0,5,.05,6.35.05,2.32,0,4.47,0,6.44-.05l3.6,10.3L387.46,55l1.43,3.61c-2.85,0-4.58-.05-5.19-.05-1.38,0-3.42,0-6.1.05q-1.1-4.08-3.13-9.58H362q-2.15,4.35-4.44,9.58c-3.06,0-4.94-.05-5.63-.05C350.71,58.55,348.7,58.56,345.91,58.6ZM365,41.84h7.66q-2.85-8.7-3.13-9.59-1.62,3.63-2.76,5.94Z" transform="translate(-15.57 -14.69)"></path> <path class="cls-1" d="M389.21,58.6c.41-3.89.71-7.05.89-9.51q.52-6.71.79-13.34c.17-4.42.26-8,.26-10.85,2.23,0,4.21.05,5.94.05,1.17,0,2.85,0,5-.05l-.59,8.94-.75,14-.1,3.43c2.84,0,4.68.08,5.54.08q6.5,0,9.82-.18l-.54,7.46q-6.5-.06-12.37-.05Q395.18,58.55,389.21,58.6Z" transform="translate(-15.57 -14.69)"></path> <path class="cls-1" d="M416.81,58.6c.41-3.89.71-7.05.89-9.51q.53-6.71.79-13.34c.17-4.42.25-8,.25-10.85,2.24,0,4.22.05,5.95.05,1.17,0,2.84,0,5-.05l-.59,8.94-.75,14-.1,3.43c2.83,0,4.68.08,5.54.08q6.49,0,9.82-.18l-.54,7.46q-6.5-.06-12.37-.05Q422.78,58.55,416.81,58.6Z" transform="translate(-15.57 -14.69)"></path> <path class="cls-2" d="M119.2,77l3.08,5.76H120l-2.5-4.8h-1.28v4.8h-2V72.11h2v4.31h1.31l2.41-4.31H122Z" transform="translate(-15.57 -14.69)"></path> <path class="cls-2" d="M133.76,77.44C133.76,81,132,83,129.1,83s-4.68-2-4.68-5.56,1.82-5.57,4.68-5.57S133.76,73.87,133.76,77.44Zm-7.19,0c0,2.88,1,4,2.53,4s2.52-1.12,2.52-4-.92-4-2.52-4S126.57,74.58,126.57,77.45Z" transform="translate(-15.57 -14.69)"></path> <path class="cls-2" d="M144.71,72.11V82.78h-2V73.72H140l-.46,4.06c-.42,3.63-1,4.69-3.08,5.23l-.47-1.5c1.12-.43,1.28-1.11,1.59-3.75l.66-5.65Z" transform="translate(-15.57 -14.69)"></path> <path class="cls-2" d="M156.55,72.11V82.78h-2V73.72h-2.72l-.46,4.06c-.42,3.63-1,4.69-3.08,5.23l-.47-1.5c1.12-.43,1.28-1.11,1.58-3.75l.67-5.65Z" transform="translate(-15.57 -14.69)"></path> <path class="cls-2" d="M160.29,76.46H165V78h-4.67Z" transform="translate(-15.57 -14.69)"></path> <path class="cls-2" d="M177.63,81.17v4h-1.48l-.26-2.44h-7.2V72.11h2v9h3.61v-9h2.06v9.06Z" transform="translate(-15.57 -14.69)"></path> <path class="cls-2" d="M186.82,73.62h-3.94v3h3.43v1.52h-3.43v3.13h4.21v1.53h-6.25V72.11H187Z" transform="translate(-15.57 -14.69)"></path> <path class="cls-2" d="M196.56,78h-3.8v4.77h-2V72.11h2v4.28h3.8V72.11h2.05V82.78h-2.05Z" transform="translate(-15.57 -14.69)"></path> <path class="cls-2" d="M209.43,73.73h-2.78v9H204.6v-9h-2.87V72.11h7.92Z" transform="translate(-15.57 -14.69)"></path> <path class="cls-2" d="M220.14,75.51c0,2.45-1.77,3.55-4.18,3.55h-1.25v3.72h-2V72.11h3.15C218.51,72.11,220.14,73.21,220.14,75.51Zm-2.13,0c0-1.35-.82-1.9-2.21-1.9h-1.09v3.92h1.09C217.16,77.53,218,77.07,218,75.51Z" transform="translate(-15.57 -14.69)"></path> <path class="cls-2" d="M236.24,73l-1,1.2a3.11,3.11,0,0,0-2-.76c-1.48,0-2.62,1.08-2.62,4s1.11,4,2.62,4a3.48,3.48,0,0,0,2.18-.86l1,1.2a4.47,4.47,0,0,1-3.22,1.3c-2.76,0-4.69-2-4.69-5.59s2-5.54,4.66-5.54A4.47,4.47,0,0,1,236.24,73Z" transform="translate(-15.57 -14.69)"></path> <path class="cls-2" d="M253.83,77.44C253.83,81,252,83,249.16,83s-4.68-2-4.68-5.56,1.83-5.57,4.68-5.57S253.83,73.87,253.83,77.44Zm-7.2,0c0,2.88,1,4,2.53,4s2.52-1.12,2.52-4-.91-4-2.52-4S246.63,74.58,246.63,77.45Z" transform="translate(-15.57 -14.69)"></path> <path class="cls-2" d="M265.26,82.78h-2v-9h-3.76v9h-2V72.11h7.82Z" transform="translate(-15.57 -14.69)"></path> <path class="cls-2" d="M277.1,72.11V82.78h-2V73.72h-2.72l-.47,4.06c-.41,3.63-1,4.69-3.07,5.23l-.48-1.5c1.13-.43,1.28-1.11,1.59-3.75l.67-5.65Z" transform="translate(-15.57 -14.69)"></path> <path class="cls-2" d="M286.29,80.31h-3.54l-.66,2.47H280l3.32-10.67h2.52l3.3,10.67H287Zm-.42-1.54-1.36-5.1-1.36,5.1Z" transform="translate(-15.57 -14.69)"></path> <path class="cls-2" d="M297.86,73.73h-2.77v9H293v-9h-2.87V72.11h7.92Z" transform="translate(-15.57 -14.69)"></path> <path class="cls-2" d="M309.32,77.44c0,3.52-1.81,5.57-4.66,5.57S300,81,300,77.45s1.82-5.57,4.68-5.57S309.32,73.87,309.32,77.44Zm-7.2,0c0,2.88,1,4,2.54,4s2.51-1.12,2.51-4-.91-4-2.51-4S302.12,74.58,302.12,77.45Z" transform="translate(-15.57 -14.69)"></path> <path class="cls-2" d="M320.8,82.78h-2V78.24a28.63,28.63,0,0,1,.29-4l-3.63,8.57h-2.51V72.11h2V76.7a24.59,24.59,0,0,1-.29,4l3.69-8.57h2.45ZM314.36,69l1.16-.23a1.23,1.23,0,0,0,1.35.93,1.22,1.22,0,0,0,1.35-.93l1.18.23a2.56,2.56,0,0,1-5,0Z" transform="translate(-15.57 -14.69)"></path> <path class="cls-2" d="M329.35,81.53l1.15-1.1a3,3,0,0,0,2.3,1c1.26,0,2-.65,2-1.76s-.7-1.74-2.12-1.74h-1.06l.25-1.53h.84c1.12,0,1.8-.57,1.8-1.53,0-.79-.44-1.44-1.58-1.44a3.6,3.6,0,0,0-2.3.93l-1-1.1a5,5,0,0,1,3.52-1.37c2.24,0,3.46,1.2,3.46,2.76a2.48,2.48,0,0,1-2.24,2.46A2.57,2.57,0,0,1,337,79.74c0,2-1.68,3.27-4.06,3.27A4.63,4.63,0,0,1,329.35,81.53Z" transform="translate(-15.57 -14.69)"></path> <path class="cls-2" d="M345.38,80.31h-3.54l-.66,2.47h-2.12l3.32-10.67h2.52l3.3,10.67H346ZM345,78.77l-1.36-5.1-1.36,5.1Z" transform="translate(-15.57 -14.69)"></path> <path class="cls-2" d="M364.12,75.51c0,2.45-1.78,3.55-4.19,3.55h-1.25v3.72h-2V72.11h3.15C362.48,72.11,364.12,73.21,364.12,75.51Zm-2.13,0c0-1.35-.82-1.9-2.21-1.9h-1.1v3.92h1.1C361.14,77.53,362,77.07,362,75.51Z" transform="translate(-15.57 -14.69)"></path> <path class="cls-2" d="M373.44,73.62H369.5v3h3.43v1.52H369.5v3.13h4.22v1.53h-6.25V72.11h6.19Z" transform="translate(-15.57 -14.69)"></path> <path class="cls-2" d="M375.91,81.53l1.14-1.1a3,3,0,0,0,2.3,1c1.27,0,2-.65,2-1.76s-.69-1.74-2.11-1.74h-1.07l.25-1.53h.85c1.11,0,1.79-.57,1.79-1.53a1.36,1.36,0,0,0-1.57-1.44,3.58,3.58,0,0,0-2.3.93l-1-1.1a5,5,0,0,1,3.52-1.37c2.24,0,3.46,1.2,3.46,2.76A2.48,2.48,0,0,1,381,77.1a2.57,2.57,0,0,1,2.58,2.64c0,2-1.69,3.27-4.06,3.27A4.61,4.61,0,0,1,375.91,81.53Z" transform="translate(-15.57 -14.69)"></path> <path class="cls-2" d="M391.24,79.74c-.88,2.3-1.93,3-4.14,3.27l-.28-1.42a2.65,2.65,0,0,0,2.47-1.68h-.68l-3.35-7.8h2.12l2.52,6.61,2.22-6.61h2.08Z" transform="translate(-15.57 -14.69)"></path> <path class="cls-2" d="M404.16,72.11V82.78h-2V73.72H399.4l-.46,4.06c-.42,3.63-1,4.69-3.07,5.23l-.48-1.5c1.13-.43,1.28-1.11,1.59-3.75l.66-5.65Z" transform="translate(-15.57 -14.69)"></path> <path class="cls-2" d="M415.83,79.24c0,2.51-1.74,3.54-4.17,3.54h-3.3V72.11h2v3.77h1.26C414.26,75.88,415.83,77,415.83,79.24Zm-2.15,0c0-1.36-.74-1.92-2.13-1.92H410.4v3.89h1.2C412.85,81.25,413.68,80.79,413.68,79.28Z" transform="translate(-15.57 -14.69)"></path> <path class="cls-2" d="M424.86,73.73h-2.78v9H420v-9h-2.88V72.11h7.93Z" transform="translate(-15.57 -14.69)"></path> <path class="cls-2" d="M432.32,80.31h-3.54l-.67,2.47H426l3.32-10.67h2.52l3.3,10.67H433Zm-.42-1.54-1.36-5.1-1.36,5.1Z" transform="translate(-15.57 -14.69)"></path> <path class="cls-2" d="M443.89,73.73h-2.78v9h-2.05v-9h-2.87V72.11h7.92Z" transform="translate(-15.57 -14.69)"></path> </g> </svg> 