<svg id="Capa_1" data-name="Capa 1" xmlns="http://www.w3.org/2000/svg" viewBox="0 0 85.36 85.36"><defs><style>.cls-1{fill:#f2bf26;}</style></defs><path class="cls-1" d="M77.45,57.69V16.6a3.17,3.17,0,0,0-3.16-3.16H11.07A3.18,3.18,0,0,0,7.9,16.6V57.7L0,67.18a4.74,4.74,0,0,0,4.74,4.74H80.61a4.75,4.75,0,0,0,4.75-4.74ZM49,70.34H36.36a.79.79,0,0,1,0-1.58H49a.79.79,0,0,1,.79.79A.8.8,0,0,1,49,70.34ZM29.65,67.18l2.41-2.89H53.29l2.42,2.89ZM73,52.1a2.76,2.76,0,0,1-2.75,2.76H15.11a2.77,2.77,0,0,1-2.76-2.76V19a2.77,2.77,0,0,1,2.76-2.76H70.25A2.76,2.76,0,0,1,73,19Z"/></svg>