<svg id="Layer_1" data-name="Layer 1" xmlns="http://www.w3.org/2000/svg" viewBox="0 0 101 101"><title>log_Artboard 2 copy</title><path d="M82,16.07a1.5,1.5,0,0,0-1.6-.33L7.49,44.33l-.06,0-.11.06-.14.09-.1.08L7,44.69l-.09.1-.09.12L6.71,45l-.07.14,0,.05s0,.08,0,.12l0,.07c-1,3.19-.58,8.45,1.21,13.84v0l0,.06A49.52,49.52,0,0,0,19.95,78.54C30.05,88.64,41.79,93.77,49,93.77a10.51,10.51,0,0,0,3.45-.51,1.49,1.49,0,0,0,.84-.75,1.49,1.49,0,0,0,.59-.72L82.37,17.67A1.5,1.5,0,0,0,82,16.07ZM48.11,31.68A52.68,52.68,0,0,0,59,38.08a64,64,0,0,0,10.87,3.63L63.64,58a66.35,66.35,0,0,1-21-5.44,55.76,55.76,0,0,1-17.55-12l23-9Zm8,46.08c-6.21,1-14,1.39-24.54-3.22C21.71,70.26,14.1,64.33,10.62,58.26,9,53.33,8.73,49.19,9.27,46.85l12.8-5A58.42,58.42,0,0,0,41.45,55.36,69.91,69.91,0,0,0,62.52,61ZM51.17,90.5c-4.88,1.39-17.73-2.71-29.1-14.09a49.82,49.82,0,0,1-6.52-8,61.11,61.11,0,0,0,14.78,8.88A45.64,45.64,0,0,0,48.85,81.4a44,44,0,0,0,6-.43ZM71,38.88a60.88,60.88,0,0,1-10.76-3.55,50,50,0,0,1-8.86-5l27-10.57Z"/><path d="M53.5,20A1.5,1.5,0,0,0,55,18.5V6.5a1.5,1.5,0,0,0-3,0v12A1.5,1.5,0,0,0,53.5,20Z"/><path d="M37.72,22.94a1.5,1.5,0,1,0,2.12-2.12L30.72,11.7a1.5,1.5,0,0,0-2.12,2.12Z"/><path d="M92.5,44h-13a1.5,1.5,0,0,0,0,3h13a1.5,1.5,0,0,0,0-3Z"/><path d="M78.28,59.27a1.5,1.5,0,0,0-2.12,2.12L84.8,70a1.5,1.5,0,1,0,2.12-2.12Z"/></svg>