<?xml version="1.0" encoding="iso-8859-1"?>
<!-- Generator: Adobe Illustrator 21.1.0, SVG Export Plug-In . SVG Version: 6.00 Build 0)  -->
<svg version="1.1" id="Layer_1" xmlns="http://www.w3.org/2000/svg" xmlns:xlink="http://www.w3.org/1999/xlink" x="0px" y="0px"
	 viewBox="0 0 100.354 100.352" style="enable-background:new 0 0 100.354 100.352;" xml:space="preserve">
<g>
	<path d="M31.276,52.042c9.435,0,17.111-7.676,17.111-17.111S40.711,17.82,31.276,17.82s-17.111,7.676-17.111,17.111
		S21.841,52.042,31.276,52.042z M31.276,20.82c7.781,0,14.111,6.33,14.111,14.111c0,7.781-6.33,14.111-14.111,14.111
		s-14.111-6.33-14.111-14.111C17.165,27.15,23.495,20.82,31.276,20.82z"/>
	<path d="M31.273,45.43c3.187,0,5.979-2.035,6.949-5.062c0.252-0.789-0.182-1.633-0.971-1.886c-0.788-0.249-1.633,0.183-1.886,0.971
		c-0.57,1.781-2.214,2.978-4.091,2.978c-1.877,0-3.521-1.197-4.09-2.979c-0.252-0.789-1.097-1.227-1.885-0.972
		c-0.789,0.252-1.225,1.096-0.972,1.885C25.293,43.394,28.085,45.43,31.273,45.43z"/>
	<path d="M71.236,47.284c-8.715,0-16.897,4.277-21.89,11.441c-0.025,0.036-0.049,0.073-0.071,0.111l-0.596,1.04
		c-4.795-3.365-10.627-5.348-16.916-5.348c-16.283,0-29.53,13.249-29.53,29.535c0,0.828,0.671,1.5,1.5,1.5h56.061
		c0.828,0,1.5-0.672,1.5-1.5c0-2.998-0.452-5.892-1.286-8.62h36.384c0.828,0,1.5-0.672,1.5-1.5
		C97.892,59.243,85.935,47.284,71.236,47.284z M5.275,82.564c0.781-13.936,12.363-25.035,26.488-25.035s25.708,11.1,26.489,25.035
		H5.275z M58.909,72.444c-1.779-4.141-4.481-7.791-7.841-10.702l0.777-1.355c4.436-6.327,11.68-10.103,19.392-10.103
		c12.54,0,22.832,9.81,23.608,22.16H58.909z"/>
	<path d="M70.799,45.359c8.553,0,15.511-6.958,15.511-15.511s-6.958-15.511-15.511-15.511s-15.511,6.958-15.511,15.511
		S62.246,45.359,70.799,45.359z M70.799,17.337c6.898,0,12.511,5.612,12.511,12.511c0,6.899-5.612,12.511-12.511,12.511
		s-12.511-5.612-12.511-12.511C58.288,22.949,63.9,17.337,70.799,17.337z"/>
	<path d="M70.798,39.424c2.552,0,4.791-1.631,5.572-4.059c0.254-0.789-0.18-1.634-0.968-1.887c-0.79-0.254-1.634,0.18-1.888,0.968
		c-0.381,1.183-1.473,1.978-2.717,1.978s-2.336-0.794-2.716-1.977c-0.253-0.788-1.089-1.222-1.887-0.97
		c-0.788,0.253-1.223,1.098-0.969,1.887C66.006,37.793,68.245,39.424,70.798,39.424z"/>
</g>
</svg>
